<?xml version="1.0" standalone="no"?>
<!DOCTYPE svg PUBLIC "-//W3C//DTD SVG 20010904//EN" "http://www.w3.org/TR/2001/REC-SVG-20010904/DTD/svg10.dtd">
<svg version="1.0" xmlns="http://www.w3.org/2000/svg" width="612.000000pt" height="408.000000pt"
  viewBox="0 0 612.000000 408.000000" preserveAspectRatio="xMidYMid meet">

  <g transform="translate(0.000000,408.000000) scale(0.100000,-0.100000)" fill="#000" stroke="none">
    <path d="M2917 2903 c-4 -3 -7 -48 -7 -99 0 -102 7 -112 67 -98 60 14 80 57
43 92 -18 17 -19 20 -5 32 22 18 19 46 -7 64 -23 16 -79 22 -91 9z m82 -27
c18 -22 -3 -56 -34 -56 -22 0 -25 4 -25 35 0 30 3 35 24 35 13 0 29 -6 35 -14z
m9 -105 c4 -27 -20 -51 -50 -51 -14 0 -18 8 -18 41 0 39 1 40 33 37 25 -2 33
-8 35 -27z" />
    <path d="M3101 2884 c-27 -22 -31 -32 -31 -74 0 -80 57 -126 122 -99 53 22 73
92 43 149 -29 56 -85 66 -134 24z m103 -16 c23 -33 21 -103 -4 -128 -59 -59
-140 34 -99 113 16 29 28 37 61 37 17 0 33 -9 42 -22z" />
    <path d="M3290 2810 c0 -60 4 -100 10 -100 6 0 10 34 10 82 l0 81 48 -79 c26
-43 56 -80 65 -82 15 -3 17 8 17 97 0 122 -18 137 -22 19 l-3 -83 -52 83 c-29
45 -57 82 -63 82 -6 0 -10 -39 -10 -100z" />
    <path d="M3888 2543 c-23 -28 -53 -82 -84 -153 -15 -36 -31 -70 -36 -77 -14
-18 -106 8 -336 96 -114 43 -232 86 -262 94 -233 66 -511 62 -655 -10 -93 -46
-155 -108 -155 -155 0 -28 16 -21 30 12 28 68 143 141 259 166 85 18 264 18
366 0 92 -16 232 -62 428 -139 77 -30 177 -63 223 -73 46 -10 84 -24 84 -30 0
-6 -11 -40 -24 -75 -13 -35 -31 -99 -41 -142 -13 -61 -27 -91 -62 -138 -120
-164 -200 -213 -232 -143 -20 45 -11 182 13 189 6 1 30 8 54 14 86 24 152 114
119 165 -44 66 -161 16 -216 -93 -12 -23 -33 -45 -55 -55 -45 -21 -46 -21 -46
13 0 75 -44 131 -104 131 -36 0 -46 -6 -93 -56 -52 -55 -53 -55 -53 -27 0 39
-17 95 -32 105 -28 17 -38 8 -38 -36 l0 -43 -77 -36 -78 -35 -5 51 c-7 66 -23
94 -58 102 -37 8 -79 -9 -119 -48 l-33 -31 0 50 c0 28 -6 59 -14 70 -13 17
-16 17 -30 4 -9 -8 -34 -58 -56 -110 -67 -156 -140 -280 -205 -347 -34 -35
-69 -63 -78 -63 -10 0 -28 10 -41 23 -59 59 -35 230 58 414 20 40 36 75 36 78
0 3 -11 5 -24 5 -17 0 -34 -12 -52 -37 -16 -21 -31 -42 -36 -47 -4 -5 -17 2
-28 17 -18 22 -30 27 -65 27 -61 0 -100 -36 -159 -148 -73 -138 -137 -207
-237 -259 -48 -25 -64 -28 -154 -28 -153 0 -204 31 -369 222 -151 176 -249
231 -421 240 -115 6 -180 -8 -278 -60 -100 -53 -186 -165 -174 -229 3 -22 4
-22 11 -3 34 93 113 182 198 224 59 28 153 51 209 51 60 0 162 -31 219 -68 25
-16 76 -62 115 -103 170 -180 214 -220 279 -250 180 -84 359 -52 504 92 l62
63 0 -48 c0 -72 22 -106 71 -106 28 0 58 29 108 103 18 26 33 47 34 47 1 0 3
-25 3 -55 2 -83 27 -140 71 -160 92 -44 150 9 303 280 34 61 59 101 56 91 -45
-136 -90 -337 -100 -451 -10 -112 24 -385 48 -385 10 0 13 41 13 168 0 132 4
188 21 271 22 107 28 123 40 105 12 -19 49 -34 81 -34 59 0 116 72 175 222 12
32 25 42 92 72 42 20 79 36 82 36 11 0 -9 -115 -47 -270 -55 -224 -72 -344
-69 -470 3 -87 6 -105 19 -108 14 -2 18 10 23 75 4 43 12 112 17 153 17 115
105 424 145 507 36 76 109 163 136 163 23 0 40 -50 36 -110 l-3 -53 -51 -18
c-93 -31 -135 -72 -137 -135 -2 -70 67 -96 134 -51 44 30 76 79 97 149 12 40
24 60 40 67 42 20 52 15 41 -21 -35 -124 28 -229 129 -216 56 8 89 34 152 122
30 41 58 75 63 76 4 0 7 -17 7 -37 0 -39 29 -113 52 -137 22 -21 55 -36 82
-36 37 0 82 44 132 131 25 44 48 79 50 79 3 0 2 -22 -2 -49 -10 -80 28 -156
81 -161 67 -7 99 19 178 148 l51 84 12 -69 c18 -109 50 -154 148 -206 35 -19
56 -22 141 -22 154 1 267 45 500 192 239 151 340 193 461 193 46 0 86 -6 103
-15 35 -18 79 -69 87 -101 7 -26 34 -33 34 -9 0 32 -40 94 -75 115 -55 34
-150 47 -237 32 -110 -19 -208 -67 -413 -201 -322 -211 -514 -241 -621 -98
-63 85 -67 147 -19 330 24 94 80 254 94 269 4 4 53 -11 110 -33 167 -66 278
-82 393 -58 59 12 157 61 184 90 24 27 1 24 -33 -5 -78 -65 -196 -94 -310 -76
-38 6 -127 35 -200 63 l-131 52 23 55 c31 70 31 80 1 80 -19 0 -33 -14 -63
-60 -37 -58 -39 -60 -81 -60 -52 0 -130 -19 -139 -33 -4 -7 0 -8 13 -3 35 14
137 27 145 19 5 -5 -9 -52 -31 -104 -22 -53 -50 -139 -64 -192 -28 -110 -19
-91 -108 -228 -61 -93 -106 -139 -135 -139 -15 0 -33 47 -33 86 0 19 16 82 35
140 40 120 42 143 16 175 -16 20 -21 21 -34 10 -9 -7 -19 -27 -22 -44 -10 -44
-54 -130 -119 -230 -85 -130 -130 -156 -163 -94 -34 65 -18 208 48 414 27 83
33 93 57 99 61 13 166 47 157 50 -6 3 -44 -4 -85 -15 -41 -10 -78 -17 -82 -15
-4 3 10 55 32 117 22 62 40 118 40 125 0 18 -25 15 -42 -5z m-338 -434 c0 -31
-7 -45 -35 -73 -39 -39 -98 -62 -103 -39 -5 19 48 111 80 138 38 32 58 23 58
-26z m-1486 25 c44 -43 33 -97 -44 -223 -64 -104 -92 -137 -109 -126 -35 21
29 237 99 336 24 33 32 35 54 13z m643 4 c15 -20 22 -69 16 -113 -5 -38 -9
-41 -71 -70 -36 -16 -79 -40 -94 -54 -16 -13 -31 -21 -34 -18 -21 20 77 203
131 245 32 25 39 27 52 10z m0 -201 c-12 -77 -86 -187 -124 -187 -26 0 -53 31
-53 60 0 42 40 90 105 127 33 18 64 33 69 33 5 0 6 -15 3 -33z m463 -80 c-31
-82 -106 -137 -124 -91 -22 56 13 115 88 150 62 29 66 21 36 -59z" />
    <path d="M4096 2278 c-29 -41 -17 -88 23 -88 9 0 41 66 41 84 0 13 -20 26 -40
26 -5 0 -16 -10 -24 -22z" />
  </g>
</svg>